<?xml version="1.0" encoding="UTF-8" standalone="no"?>
<!-- Created with Inkscape (http://www.inkscape.org/) -->

<svg
   width="156.90846mm"
   height="121.69964mm"
   viewBox="0 0 156.90846 121.69964"
   version="1.1"
   id="svg5"
   inkscape:version="1.2.2 (b0a8486541, 2022-12-01)"
   sodipodi:docname="drawing.svg"
   xmlns:inkscape="http://www.inkscape.org/namespaces/inkscape"
   xmlns:sodipodi="http://sodipodi.sourceforge.net/DTD/sodipodi-0.dtd"
   xmlns="http://www.w3.org/2000/svg"
   xmlns:svg="http://www.w3.org/2000/svg">
  <sodipodi:namedview
     id="namedview7"
     pagecolor="#ffffff"
     bordercolor="#000000"
     borderopacity="0.25"
     inkscape:showpageshadow="2"
     inkscape:pageopacity="0.0"
     inkscape:pagecheckerboard="0"
     inkscape:deskcolor="#d1d1d1"
     inkscape:document-units="mm"
     showgrid="false"
     inkscape:lockguides="false"
     inkscape:zoom="0.34965979"
     inkscape:cx="118.68679"
     inkscape:cy="211.63428"
     inkscape:window-width="1452"
     inkscape:window-height="990"
     inkscape:window-x="26"
     inkscape:window-y="23"
     inkscape:window-maximized="0"
     inkscape:current-layer="svg5">
    <inkscape:grid
       type="xygrid"
       id="grid3003"
       originx="-16.481961"
       originy="-120.79572" />
  </sodipodi:namedview>
  <defs
     id="defs2" />
  <g
     id="g3562"
     transform="translate(-16.481961,-120.79572)">
    <path
       id="path2729"
       style="fill:#008000;stroke-width:0.264583"
       d="m 110.28422,120.79573 a 17.874905,17.875273 0 0 0 -1.37976,0.0517 17.874905,17.875273 0 0 0 -16.49408,18.72961 17.874905,17.875273 0 0 0 5.303036,11.80548 l -7.892542,10.75025 H 56.51283 v 15.3541 h -4.702039 a 17.874905,17.875273 0 0 0 -18.812288,-14.02808 17.874905,17.875273 0 0 0 -16.493567,18.7296 17.874905,17.875273 0 0 0 18.304826,16.96331 17.874905,17.875273 0 0 0 17.042887,-14.26941 h 4.660181 v 16.22691 h 17.965828 l 7.858435,10.70374 a 17.874905,17.875273 0 0 0 -5.382617,13.71338 17.874905,17.875273 0 0 0 18.304826,16.9633 17.874905,17.875273 0 0 0 17.421678,-17.86919 l -0.0915,-1.80971 a 17.874905,17.875273 0 0 0 -19.141467,-16.01401 17.874905,17.875273 0 0 0 -5.991366,1.54409 l -5.309236,-7.2316 h 74.742729 v -38.97643 h -14.14488 l 5.1785,-7.05332 a 17.874905,17.875273 0 0 0 8.04498,1.68672 17.874905,17.875273 0 0 0 17.42168,-17.86971 l -0.092,-1.80971 a 17.874905,17.875273 0 0 0 -19.14095,-16.01401 17.874905,17.875273 0 0 0 -16.49409,18.72961 17.874905,17.875273 0 0 0 5.2095,11.71195 l -7.7959,10.61847 H 97.488623 l 5.305617,-7.22643 a 17.874905,17.875273 0 0 0 7.92148,1.63452 17.874905,17.875273 0 0 0 17.42168,-17.86971 l -0.092,-1.80971 a 17.874905,17.875273 0 0 0 -17.76119,-16.06568 z" />
    <path
       id="path3551"
       style="font-weight:800;font-size:24.5868px;font-family:Montserrat;-inkscape-font-specification:'Montserrat, Ultra-Bold';fill:#00ff00;stroke-width:0.128056"
       d="m 69.119812,171.5611 c -1.734754,0 -3.182838,0.24704 -4.344954,0.74156 -1.162117,0.49452 -2.038267,1.1486 -2.627747,1.96216 -0.572637,0.81355 -0.858862,1.72301 -0.858862,2.72799 0,0.89333 0.185508,1.63496 0.556038,2.22519 0.37053,0.57428 0.850226,1.0449 1.439706,1.4118 0.589479,0.35095 1.238242,0.63812 1.945618,0.86144 0.724217,0.22334 1.43978,0.40679 2.147155,0.55036 0.724218,0.14357 1.380943,0.28742 1.970423,0.43099 0.589479,0.14356 1.069692,0.32702 1.440221,0.55034 0.370531,0.22334 0.555522,0.52614 0.555522,0.909 0,0.27118 -0.100718,0.5104 -0.302824,0.71778 -0.185265,0.19143 -0.488448,0.35091 -0.909505,0.47852 -0.421056,0.11167 -0.977066,0.16795 -1.667598,0.16795 -1.027379,0 -2.063083,-0.15165 -3.107304,-0.45475 -1.027379,-0.31904 -1.936929,-0.71774 -2.728516,-1.19631 l -1.642276,3.49333 c 0.842113,0.54237 1.928693,0.98902 3.259232,1.33997 1.347382,0.33499 2.745107,0.50229 4.193542,0.50229 1.751596,0 3.200197,-0.24704 4.345471,-0.74156 1.162117,-0.49451 2.029271,-1.14859 2.601908,-1.96215 0.58948,-0.82951 0.884701,-1.73062 0.884701,-2.70371 0,-0.87737 -0.185508,-1.60336 -0.556038,-2.17764 -0.353688,-0.59023 -0.825421,-1.06086 -1.4149,-1.4118 -0.589481,-0.3669 -1.246206,-0.65407 -1.970423,-0.86145 -0.707376,-0.22334 -1.422939,-0.40679 -2.147156,-0.55036 -0.707375,-0.14356 -1.364618,-0.27907 -1.970939,-0.40669 -0.589479,-0.14358 -1.069175,-0.31921 -1.439706,-0.52659 -0.353688,-0.22333 -0.530716,-0.5183 -0.530716,-0.8852 0,-0.28714 0.09275,-0.54252 0.278019,-0.76585 0.185265,-0.22333 0.488448,-0.39845 0.909505,-0.52607 0.421056,-0.14357 0.976548,-0.21549 1.667082,-0.21549 0.774744,0 1.575098,0.11154 2.40037,0.33486 0.825271,0.20739 1.659026,0.52635 2.501139,0.95706 l 1.540991,-3.5171 c -0.875798,-0.47857 -1.878102,-0.83766 -3.006535,-1.07695 -1.111588,-0.25523 -2.248527,-0.38292 -3.410644,-0.38292 z m 72.657578,1.2206 v 2.89491 h -1.99574 v 3.37396 h 1.99574 v 4.85758 c 0,1.65902 0.4887,2.90308 1.46555,3.73259 0.97685,0.81356 2.34117,1.2206 4.09277,1.2206 0.64001,0 1.25433,-0.0641 1.84382,-0.19172 0.58948,-0.11166 1.08664,-0.29511 1.49086,-0.55035 l -1.18753,-3.18223 c -0.4042,0.27118 -0.89239,0.40668 -1.46502,0.40668 -0.42106,0 -0.76664,-0.12768 -1.03611,-0.38292 -0.26948,-0.27119 -0.40412,-0.63809 -0.40412,-1.10071 v -4.80952 h 3.13263 v -3.37396 h -3.13263 v -2.89491 z m -54.821458,2.67994 c -1.229485,0 -2.25671,0.23923 -3.081982,0.71779 -0.360254,0.21326 -0.680162,0.47756 -0.960148,0.79219 v -1.29501 h -4.572847 v 17.61134 h 4.800224 v -5.78932 c 0.251645,0.24743 0.529221,0.46257 0.83354,0.64492 0.825272,0.47857 1.819097,0.71779 2.981213,0.71779 1.246329,0 2.374787,-0.27101 3.385323,-0.81339 1.02738,-0.54237 1.835696,-1.31631 2.425176,-2.3213 0.606321,-1.00499 0.909505,-2.19327 0.909505,-3.56516 0,-1.37189 -0.303184,-2.55234 -0.909505,-3.54138 -0.58948,-1.00498 -1.397796,-1.77894 -2.425176,-2.32131 -1.010536,-0.55832 -2.138994,-0.83716 -3.385323,-0.83716 z m 18.113618,0 c -1.29684,0 -2.39987,0.24704 -3.30935,0.74156 -0.50842,0.26752 -0.93778,0.6125 -1.2883,1.03456 v -1.56115 h -4.572844 v 12.96924 h 4.800224 v -5.95829 c 0,-1.13261 0.30318,-1.94616 0.9095,-2.44068 0.60633,-0.51047 1.39769,-0.76533 2.37454,-0.76533 0.18527,0 0.35381,0.008 0.50539,0.0238 0.16841,0 0.3619,0.0161 0.58084,0.0481 z m 8.71627,0 c -1.49897,0 -2.82937,0.28718 -3.99149,0.86145 -1.16212,0.55833 -2.08015,1.33957 -2.75383,2.34456 -0.65685,1.00498 -0.98548,2.16148 -0.98548,3.46956 0,1.30807 0.32863,2.47289 0.98548,3.49384 0.67368,1.00499 1.59171,1.79457 2.75383,2.36885 1.16212,0.57427 2.49252,0.86144 3.99149,0.86144 1.49896,0 2.82937,-0.28717 3.99148,-0.86144 1.17897,-0.57428 2.097,-1.36386 2.75385,-2.36885 0.65684,-1.02095 0.98495,-2.18577 0.98495,-3.49384 0,-1.30808 -0.32811,-2.46458 -0.98495,-3.46956 -0.65685,-1.00499 -1.57488,-1.78623 -2.75385,-2.34456 -1.16211,-0.57427 -2.49252,-0.86145 -3.99148,-0.86145 z m 9.90327,0.21497 v 7.25021 c 0,1.35593 0.24434,2.48063 0.73277,3.37396 0.50527,0.87736 1.19539,1.52362 2.0712,1.93837 0.89263,0.41476 1.89494,0.62219 3.00653,0.62219 1.04422,0 2.0126,-0.2314 2.90525,-0.69401 0.43819,-0.23494 0.82547,-0.52774 1.1622,-0.87799 v 1.35651 h 4.57284 v -12.96924 h -4.80022 v 6.24562 c 0,0.71785 -0.11819,1.30782 -0.35398,1.77043 -0.23579,0.44667 -0.54693,0.77396 -0.9343,0.98133 -0.38738,0.20739 -0.81723,0.3111 -1.28882,0.3111 -0.72422,0 -1.28819,-0.21577 -1.6924,-0.64648 -0.38738,-0.43069 -0.58136,-1.14836 -0.58136,-2.15335 v -6.50865 z m -37.743949,3.39773 c 0.538954,0 1.019167,0.11986 1.440223,0.35915 0.437898,0.23928 0.782962,0.59005 1.035595,1.05265 0.269476,0.46261 0.404627,1.02131 0.404627,1.67535 0,0.65404 -0.135151,1.21222 -0.404627,1.67484 -0.252633,0.46261 -0.597697,0.81335 -1.035595,1.05264 -0.421056,0.23928 -0.901269,0.35915 -1.440223,0.35915 -0.538953,0 -1.027127,-0.11987 -1.465027,-0.35915 -0.421056,-0.23929 -0.766119,-0.59003 -1.035595,-1.05264 -0.252634,-0.46262 -0.379305,-1.0208 -0.379305,-1.67484 0,-0.65404 0.126671,-1.21274 0.379305,-1.67535 0.269476,-0.4626 0.614539,-0.81337 1.035595,-1.05265 0.4379,-0.23929 0.926074,-0.35915 1.465027,-0.35915 z m 27.840679,0 c 0.55579,0 1.04397,0.11986 1.46503,0.35915 0.43789,0.23928 0.78348,0.59005 1.03611,1.05265 0.25263,0.44667 0.37879,0.99703 0.37879,1.65107 0,0.65403 -0.12616,1.22055 -0.37879,1.69912 -0.25263,0.46261 -0.59822,0.81335 -1.03611,1.05264 -0.42106,0.23928 -0.90924,0.35915 -1.46503,0.35915 -0.53896,0 -1.02764,-0.11987 -1.46554,-0.35915 -0.42106,-0.23929 -0.76612,-0.59003 -1.0356,-1.05264 -0.25264,-0.47857 -0.37878,-1.04509 -0.37878,-1.69912 0,-0.65404 0.12614,-1.2044 0.37878,-1.65107 0.26948,-0.4626 0.61454,-0.81337 1.0356,-1.05265 0.4379,-0.23929 0.92658,-0.35915 1.46554,-0.35915 z" />
  </g>
</svg>
